<svg xmlns="http://www.w3.org/2000/svg" viewBox="0 0 640 480" style="enable-background:new 0 0 640 480" xml:space="preserve"><style>.st0{display:none}.st3{fill:#9c272d}</style><g id="Capa_3"><path transform="rotate(-45.001 321.845 240.711)" style="fill:#ffe4da;stroke:#9c272d;stroke-width:10;stroke-miterlimit:10" d="M168.33 87.19h307.03v307.03H168.33z"/><path id="Puño" class="st3" d="m216.4 182.77 15.25-13.56 17.1-3.8 20.14-14.44 26.45-3.7 23.51-14.15 24.14 5.69 28.12-7.98 23.56 7.22 7.41 17.56-2.09 58.06-8.74 49.4-17.1 4.94-16.83-6.5-5.64-41.42-2.35-37.15-3.69.7-.45 36.66-6.18 42.44-14.49 4.45-14.68-5.26-6.29-36.41-2.91-31.78-3.44.86 2.45 33.63-3.61 34.12-12.79 4.53-13.99-4.33-7.48-27.87-3.55-25.31-2.87.96 2.61 27.12-1.75 26.83-11.01 3.73-13.08-3.04-9.72-27.46-7.86-36.66z"/><path id="Pulgar" class="st3" d="m311.36 285.19 10.67-11.5 33.26-3.98 18.98 7.58 22.75-6.58 4.39-20.56 12.03 19.56 2.09 20.08-13.45 16.74-45.12 4.18-38.49-10.46z"/><path d="M565.76 450.54c-155.07-70.02-332.75-70.02-487.82 0-9.66-21.41-19.33-42.81-28.99-64.22 173.5-78.34 372.31-78.34 545.81 0-9.67 21.41-19.34 42.82-29 64.22z" style="fill:#ffe4da"/><path d="M565.76 450.54c-155.07-70.02-332.75-70.02-487.82 0-9.66-21.41-19.33-42.81-28.99-64.22 173.5-78.34 372.31-78.34 545.81 0-9.67 21.41-19.34 42.82-29 64.22z" style="fill:none;stroke:#9c272d;stroke-width:10;stroke-miterlimit:10"/><path class="st3" d="M119 377.97c.32.94.64 1.88.96 2.83-.91.62-1.53 1.31-1.86 2.07-.33.76-.34 1.57-.05 2.42.28.82.75 1.46 1.39 1.92.65.47 1.55.81 2.72 1.03.8.15 2.57.35 5.3.63 1.65.16 2.96.38 3.92.64s1.92.67 2.87 1.22c2.54 1.44 4.24 3.58 5.13 6.4.67 2.13.78 4.23.34 6.32-.44 2.08-1.36 3.9-2.77 5.47-.76.83-1.64 1.58-2.64 2.25-1 .67-1.98 1.17-2.93 1.49-.32-.93-.63-1.87-.95-2.8 1.23-.8 2.04-1.6 2.43-2.42.39-.81.42-1.75.07-2.8-.36-1.1-1.15-1.92-2.37-2.44-.81-.33-2.22-.61-4.25-.81-2.23-.23-3.77-.4-4.62-.53-.85-.13-1.69-.33-2.53-.6-3.73-1.15-6.27-3.51-7.57-7.14-.67-1.86-.91-3.7-.72-5.55.19-1.84.8-3.49 1.83-4.93 1.41-2 3.52-3.57 6.3-4.67zm9.65 32.48c.32.93.64 1.87.95 2.8-1.26.43-2.78.52-4.57.29-.67-.08-1.12-.12-1.37-.13-.24-.01-.47.03-.67.1-.31.11-.52.24-.64.4-.12.16-.27.51-.46 1.06-.15.46-.38.74-.71.86-.86.31-1.54-.24-2.04-1.64-1.07-2.96-2.13-5.92-3.2-8.89-.16-.46-.18-.89-.04-1.3.14-.41.39-.69.76-.84.34-.14.65-.13.92.02s.58.48.92.98c.86 1.28 1.84 2.4 2.95 3.39 1.11.99 2.26 1.75 3.45 2.29 1.24.57 2.48.77 3.75.61zm-6.77-30.3c-.3-.9-.6-1.8-.91-2.71 1-.26 1.9-.42 2.68-.47.78-.05 1.93-.01 3.43.12.37.03.66 0 .87-.06.31-.1.5-.28.58-.54.1-.3.21-.59.31-.89.15-.45.41-.73.78-.85.44-.14.82-.08 1.13.17.31.26.57.73.79 1.42.86 2.72 1.72 5.44 2.59 8.16.15.48.14.91-.03 1.3s-.46.65-.88.78c-.32.1-.65.09-1-.04-.19-.09-.36-.21-.5-.37-.15-.16-.34-.45-.56-.87-.44-.75-1.01-1.48-1.73-2.2a12.03 12.03 0 0 0-2.28-1.8c-1.59-.93-3.35-1.32-5.27-1.15zM135.06 373.5c2.16-.67 4.32-1.32 6.49-1.97l.9 3.01c-.64.68-1.06 1.43-1.28 2.25-.36 1.34-.43 2.81-.21 4.43.07.53.14 1.06.22 1.59.07.51.01.93-.18 1.29-.18.36-.48.59-.88.72-.42.13-.81.09-1.16-.13-.36-.22-.61-.56-.76-1.04-1.05-3.39-2.09-6.77-3.14-10.15zm19.48-5.69 8.07 29.4c.18.65.43 1.09.74 1.3.17.13.32.2.44.22.12.01.51.02 1.17.02.8-.02 1.3.34 1.5 1.07.12.44.01.84-.33 1.22-.24.28-.72.52-1.42.71a619.063 619.063 0 0 0-11.19 3.17c-.26.08-.51.15-.77.23-.68.2-1.23.24-1.65.12-.42-.12-.69-.4-.83-.85-.22-.73.02-1.3.71-1.7.56-.35.89-.56.99-.63.1-.07.18-.21.24-.41.15-.35.13-.85-.06-1.5-2.87-9.75-5.74-19.5-8.6-29.25 3.66-1.07 7.32-2.11 10.99-3.12zm8.6-2.29 2.67 10.27c.13.49.09.91-.1 1.29-.19.37-.5.61-.92.72-.41.11-.78.06-1.12-.15-.34-.2-.62-.54-.83-1-.22-.49-.43-.98-.65-1.47-.66-1.49-1.49-2.71-2.5-3.66-.63-.58-1.39-1-2.27-1.24-.27-1.01-.55-2.02-.82-3.03 2.18-.59 4.36-1.16 6.54-1.73zM179.83 361.43c2.28 9.9 4.57 19.81 6.85 29.71.15.66.38 1.1.68 1.33.17.14.31.22.43.23.12.02.51.04 1.16.07.8.01 1.29.39 1.45 1.13.1.44-.03.84-.37 1.2-.25.27-.73.48-1.42.64-.27.06-.54.12-.8.18-3.51.81-7.01 1.65-10.51 2.52l-.61.15c-.56.14-1.03.14-1.39-.01-.36-.15-.6-.43-.7-.85-.17-.69.02-1.22.6-1.6.47-.32.75-.5.82-.57.08-.06.14-.18.2-.36.12-.32.11-.77-.04-1.35-2.1-8.4-4.2-16.8-6.29-25.2-.15-.59-.35-.99-.62-1.21-.14-.13-.26-.2-.36-.22-.1-.02-.45-.05-1.04-.1-.72-.05-1.16-.42-1.34-1.11-.11-.42-.03-.78.24-1.09.27-.31.7-.54 1.3-.69.22-.05.43-.11.65-.16 3.69-.89 7.4-1.78 11.11-2.64zm11.52 15.93c1.54-.09 2.75-.07 3.61.05.86.12 1.67.36 2.42.71.79.38 1.44.9 1.95 1.56.51.65.85 1.39 1.02 2.2.36 1.75.72 3.51 1.07 5.26.11.54.33.78.67.71a.51.51 0 0 0 .3-.18c.07-.1.17-.27.28-.52.28-.66.63-1.03 1.05-1.11.27-.05.57.04.91.3.33.25.53.53.59.84.1.53 0 1.21-.32 2.06-.32.85-.77 1.64-1.34 2.37-.54.69-1.16 1.24-1.86 1.64-.71.4-1.57.71-2.6.93-2.08.44-3.84.15-5.29-.87-1.45-1.02-2.43-2.67-2.94-4.95-.32-1.42-.63-2.84-.95-4.26-.21-.95-.34-1.49-.39-1.64-.23-.66-.59-1.19-1.07-1.6-.6-.49-1.35-.68-2.24-.58-.21-.9-.41-1.81-.62-2.71.85-.33 1.42-.71 1.72-1.13.26-.38.4-.77.44-1.19.04-.42-.03-1-.2-1.76-.5-2.24-1-4.47-1.49-6.71-.24-1.06-.62-1.81-1.14-2.25-.52-.43-1.35-.68-2.48-.74-.21-.94-.43-1.87-.64-2.81l.65-.15c1.85-.42 3.44-.7 4.78-.85 1.98-.24 3.85.04 5.59.82 2.51 1.12 4.06 3.15 4.65 6.06.49 2.39.16 4.49-.96 6.32-.47.77-1.07 1.44-1.79 2.02-.72.58-1.85 1.29-3.38 2.16zM215.8 354.23l5.94 34.92c-3.53.6-7.06 1.23-10.58 1.9l-.62.12c-.57.11-1.03.08-1.38-.09-.35-.17-.57-.47-.65-.89-.13-.7.09-1.22.69-1.56.49-.29.77-.46.85-.52.08-.06.15-.17.22-.34.14-.31.15-.76.04-1.35-1.61-8.51-3.21-17.02-4.82-25.52-.11-.59-.29-1.01-.55-1.24-.13-.13-.24-.21-.34-.24-.1-.02-.44-.08-1.03-.16-.71-.09-1.13-.49-1.27-1.18-.08-.42.02-.78.3-1.08.28-.29.73-.5 1.33-.61.22-.04.44-.08.65-.12 3.74-.73 7.48-1.4 11.22-2.04zm5.23 18.28c-.16-.99-.33-1.98-.49-2.97.87-.64 1.49-1.27 1.86-1.91.37-.64.58-1.44.65-2.42.03-.67.13-1.15.3-1.43.18-.28.46-.46.86-.52.53-.08.93.07 1.19.47.15.2.29.7.41 1.49l1.53 9.77c.13.8.13 1.37.01 1.71-.12.33-.41.54-.86.61-.37.06-.68-.01-.93-.22-.25-.2-.48-.58-.7-1.12-.47-1.13-1.01-1.97-1.62-2.52-.63-.56-1.37-.87-2.21-.94zm-2.99-18.66c3.39-.56 6.78-1.1 10.18-1.61.45 3.03.91 6.06 1.36 9.08.08.53.04.93-.13 1.2-.16.27-.46.44-.89.5-.36.06-.64.02-.83-.11-.19-.13-.4-.42-.62-.88-.94-1.89-2.1-3.25-3.49-4.1-1.39-.85-3.09-1.21-5.08-1.09-.16-.99-.33-1.99-.5-2.99zm5.85 34.94c-.15-.92-.31-1.84-.46-2.76 1.01-.34 1.83-.72 2.46-1.14.63-.42 1.24-1 1.83-1.74.59-.74 1.04-1.48 1.34-2.22.31-.74.56-1.69.76-2.86.09-.57.22-.97.39-1.2.16-.23.42-.36.76-.42.45-.07.79.02 1.01.28.22.25.38.73.49 1.44l1.35 9.06c-3.32.49-6.63 1.01-9.93 1.56zM246.21 349.81c1.41 11.72 2.82 23.44 4.24 35.17-3.55.43-7.1.89-10.64 1.38l-.62.09c-.57.08-1.03.03-1.38-.16-.34-.19-.55-.49-.61-.92-.1-.7.15-1.21.76-1.52.5-.26.79-.42.88-.48.08-.05.16-.17.24-.33.15-.3.19-.75.11-1.35l-3.57-25.73c-.08-.6-.24-1.02-.48-1.27-.12-.14-.23-.23-.33-.26s-.44-.1-1.02-.21c-.7-.13-1.11-.54-1.21-1.24-.06-.43.06-.78.35-1.06.3-.28.75-.46 1.36-.54l.66-.09c3.74-.54 7.5-1.02 11.26-1.48zm4.32 18.51c-.12-1-.23-1.99-.35-2.99.9-.59 1.55-1.2 1.95-1.82.4-.62.65-1.41.76-2.38.06-.67.18-1.14.37-1.41s.48-.43.88-.48c.53-.06.92.12 1.17.53.14.21.25.71.34 1.5.35 3.28.7 6.55 1.06 9.83.09.81.06 1.38-.08 1.7-.14.33-.43.52-.89.57-.37.04-.68-.05-.92-.26-.24-.22-.45-.6-.65-1.16-.41-1.16-.91-2.02-1.5-2.6-.57-.57-1.29-.92-2.14-1.03zm-2.07-18.77c3.41-.4 6.82-.77 10.23-1.11.31 3.05.61 6.09.92 9.14.05.53-.01.93-.18 1.19-.18.26-.48.41-.91.46-.37.04-.64-.01-.82-.15-.18-.14-.37-.44-.57-.91-.84-1.93-1.94-3.35-3.29-4.27-1.35-.91-3.02-1.36-5.02-1.34l-.36-3.01zm4.14 35.17-.33-2.78c1.02-.29 1.86-.63 2.51-1.02.65-.39 1.28-.93 1.91-1.65.62-.71 1.11-1.43 1.45-2.15.34-.72.64-1.66.9-2.82.12-.57.27-.96.44-1.18.17-.22.43-.34.78-.38.46-.05.79.06 1 .33.21.27.35.75.42 1.46.3 3.04.61 6.08.91 9.11-3.35.34-6.67.7-9.99 1.08zM261.82 348.13c2.23-.21 4.46-.41 6.69-.6.09 1.04.18 2.09.26 3.13-.75.53-1.32 1.18-1.69 1.94-.62 1.24-.98 2.67-1.09 4.29-.04.53-.07 1.07-.11 1.6-.04.51-.18.92-.43 1.22-.25.31-.58.48-1 .52-.43.04-.8-.08-1.1-.37-.3-.28-.48-.67-.53-1.17-.33-3.52-.66-7.04-1-10.56zm20.05-1.59c.64 10.14 1.28 20.29 1.93 30.43.04.67.19 1.15.45 1.43.14.16.27.27.38.3.12.04.49.12 1.13.26.78.14 1.2.6 1.24 1.36.03.45-.16.82-.56 1.12-.29.23-.8.36-1.52.4-.26.02-.53.03-.79.05-3.57.23-7.14.48-10.71.77l-.79.06c-.7.06-1.25-.01-1.63-.22-.38-.2-.59-.53-.63-1-.07-.76.28-1.27 1.03-1.52.61-.22.97-.36 1.08-.42.11-.05.21-.17.31-.35.22-.31.3-.81.24-1.48-.82-10.13-1.65-20.26-2.47-30.39 3.77-.29 7.54-.56 11.31-.8zm8.81-.49c.17 3.53.35 7.07.52 10.6.02.5-.09.91-.35 1.24-.26.32-.61.5-1.04.52-.42.02-.77-.1-1.06-.37-.29-.27-.49-.65-.6-1.15-.11-.52-.22-1.04-.34-1.57-.34-1.59-.9-2.96-1.69-4.09-.5-.7-1.15-1.26-1.95-1.68-.06-1.04-.13-2.09-.19-3.13 2.23-.14 4.47-.26 6.7-.37zM305.55 344.79c.03.99.05 1.99.08 2.98-1.04.32-1.83.8-2.36 1.43-.53.63-.78 1.4-.75 2.29.03.87.28 1.61.75 2.25.47.64 1.23 1.23 2.26 1.79.71.38 2.32 1.1 4.81 2.18 1.51.65 2.68 1.24 3.51 1.77.83.54 1.61 1.21 2.35 2.01 1.97 2.13 2.95 4.68 2.96 7.64.01 2.23-.51 4.27-1.53 6.13a11.562 11.562 0 0 1-4.21 4.4c-.96.57-2 1.02-3.15 1.36-1.14.34-2.21.53-3.2.55-.02-.99-.05-1.97-.07-2.96 1.39-.4 2.39-.92 3-1.59.61-.66.9-1.54.88-2.65-.02-1.16-.53-2.17-1.52-3.03-.66-.56-1.92-1.24-3.77-2.04-2.04-.88-3.44-1.5-4.2-1.87-.76-.37-1.49-.81-2.2-1.32-3.18-2.2-4.88-5.21-5.05-9.07-.09-1.97.22-3.81.94-5.51.72-1.7 1.77-3.09 3.16-4.16 1.92-1.48 4.37-2.35 7.31-2.58zm-.39 33.88c.03.99.05 1.97.08 2.96-1.31.04-2.78-.33-4.39-1.08a19.1 19.1 0 0 0-1.25-.53c-.23-.08-.45-.11-.66-.11-.32.01-.56.08-.72.2-.16.12-.4.41-.74.87-.27.39-.58.59-.91.61-.9.04-1.38-.68-1.45-2.17l-.42-9.44c-.02-.48.09-.9.34-1.25s.57-.54.96-.57c.36-.03.65.06.86.29.21.23.41.63.58 1.21.44 1.47 1.03 2.84 1.79 4.11.75 1.27 1.61 2.34 2.58 3.21.99.91 2.1 1.47 3.35 1.69zm2.47-30.95-.06-2.85c1.02.05 1.91.16 2.66.35.75.19 1.82.56 3.2 1.13.34.13.62.2.84.2.32 0 .56-.12.71-.35l.55-.76c.27-.38.6-.58.99-.58.46 0 .8.16 1.01.5.21.33.32.87.33 1.59.02 2.85.04 5.71.05 8.56 0 .5-.13.91-.41 1.23-.27.32-.63.49-1.06.49-.33 0-.64-.11-.93-.33-.15-.14-.27-.3-.37-.5-.09-.2-.19-.53-.27-1-.19-.84-.52-1.72-.99-2.61a12.08 12.08 0 0 0-1.62-2.39c-1.22-1.37-2.77-2.27-4.63-2.68zM349.43 347.99c-.88.27-1.5.67-1.88 1.19-.38.52-.59 1.3-.63 2.34l-.93 23.18c-.06 1.52.09 2.6.45 3.24.29.53.83.93 1.62 1.19-.04.95-.08 1.9-.13 2.85-3.54-.47-6.47-2.01-8.81-4.66-3.05-3.44-4.55-8.15-4.43-14.15.06-3.01.55-5.72 1.47-8.13.92-2.41 2.25-4.44 4.01-6.09 1.34-1.26 2.78-2.2 4.32-2.82 1.54-.62 3.23-.93 5.07-.94-.05.94-.09 1.87-.13 2.8zm2.08.1c.04-.93.09-1.87.13-2.8 1.83.17 3.49.64 4.97 1.4 1.48.76 2.83 1.83 4.05 3.2 3.23 3.65 4.59 8.55 4.16 14.66-.42 5.99-2.35 10.54-5.7 13.69-2.58 2.44-5.64 3.71-9.23 3.83.05-.95.09-1.9.14-2.85.42-.08.76-.2 1-.35.24-.15.47-.38.68-.68.47-.69.74-1.75.82-3.18.4-7.72.79-15.45 1.19-23.17.05-.92-.07-1.65-.34-2.2-.18-.37-.41-.67-.68-.89-.28-.23-.67-.45-1.19-.66zM383.09 348.27c-.99 10.12-1.97 20.23-2.96 30.35-.07.67.01 1.17.22 1.48.11.19.22.3.33.36.11.05.47.2 1.08.43.75.27 1.09.78 1.01 1.54-.05.45-.29.79-.74 1.02-.33.18-.84.23-1.54.16-.27-.03-.54-.05-.82-.08-3.57-.35-7.13-.66-10.7-.95-.21-.02-.42-.03-.62-.05-.58-.05-1.01-.2-1.31-.45-.29-.26-.43-.6-.39-1.03.05-.71.41-1.15 1.07-1.32.55-.15.86-.24.96-.28.09-.04.19-.13.3-.28.21-.26.35-.69.39-1.3.69-8.63 1.37-17.26 2.06-25.89.05-.6-.02-1.05-.2-1.34-.09-.16-.18-.27-.27-.32-.09-.05-.41-.19-.95-.42-.66-.28-.96-.77-.91-1.47.03-.43.22-.75.57-.96.35-.21.83-.29 1.44-.24.22.02.44.03.66.05 3.78.29 7.55.62 11.32.99zm.21 19 .3-2.99c1.02-.38 1.79-.83 2.31-1.34.51-.51.93-1.24 1.25-2.18.2-.64.42-1.07.67-1.3.24-.23.56-.32.96-.28.53.06.88.31 1.03.77.09.24.09.75.01 1.54-.36 3.28-.72 6.55-1.09 9.83-.09.81-.24 1.36-.44 1.65-.2.29-.54.41-.99.36-.37-.04-.65-.19-.84-.46-.19-.26-.31-.69-.38-1.27-.17-1.22-.47-2.17-.91-2.86a3.717 3.717 0 0 0-1.88-1.47zm2.03-18.78c3.41.35 6.82.72 10.23 1.12-.35 3-.71 6-1.06 8.99-.07.58-.22.99-.45 1.23-.23.23-.57.33-1.02.27-.33-.04-.58-.16-.76-.36-.17-.2-.3-.53-.38-.97-.15-.87-.39-1.68-.72-2.43-.32-.75-.71-1.4-1.16-1.96a7.373 7.373 0 0 0-2.1-1.82c-.79-.45-1.75-.8-2.9-1.06.11-1 .21-2 .32-3.01zM425.44 353.85l-5.01 30.08c-.11.67-.07 1.16.12 1.49.1.19.2.32.31.38.1.06.45.23 1.05.51.73.32 1.04.85.91 1.6-.08.44-.34.77-.8.97-.34.15-.85.17-1.55.05-.27-.05-.54-.09-.81-.14-3.54-.59-7.09-1.15-10.64-1.67l-.62-.09c-.57-.08-1-.26-1.27-.54-.28-.28-.39-.63-.32-1.06.1-.7.49-1.12 1.16-1.25.56-.11.88-.18.97-.21.09-.03.2-.11.32-.25.23-.24.39-.67.48-1.27 1.27-8.56 2.54-17.13 3.8-25.69.09-.6.05-1.05-.11-1.35-.08-.17-.16-.28-.25-.34s-.39-.22-.92-.49c-.64-.32-.91-.83-.81-1.53.06-.43.27-.73.64-.92.36-.18.85-.23 1.45-.14.22.03.44.06.66.1 3.75.55 7.5 1.14 11.24 1.76zm-1.07 18.98c.17-.99.34-1.98.5-2.97 1.05-.31 1.85-.71 2.4-1.18.55-.47 1.01-1.17 1.39-2.09.25-.62.5-1.04.76-1.25.26-.21.59-.28.98-.21.53.09.85.37.98.83.08.24.04.76-.1 1.54-.58 3.24-1.17 6.49-1.75 9.73-.14.8-.33 1.34-.55 1.61-.22.28-.56.37-1.01.29-.37-.07-.64-.24-.81-.51-.17-.27-.27-.71-.3-1.29-.09-1.23-.33-2.2-.72-2.92-.4-.71-.99-1.24-1.77-1.58zm3.29-18.6c3.39.58 6.77 1.18 10.16 1.81-.55 2.97-1.11 5.93-1.66 8.9-.11.58-.29.98-.53 1.19-.25.22-.59.29-1.04.2-.33-.06-.57-.2-.73-.41-.16-.21-.26-.55-.32-1-.1-.88-.28-1.7-.55-2.47-.27-.77-.61-1.45-1.03-2.03-.56-.8-1.22-1.46-1.98-1.96s-1.7-.92-2.83-1.25l.51-2.98zM447.92 364.74c.06 1.84.12 3.68.17 5.52-2.59 5.17-5.15 10.35-7.66 15.54-.22.45-.38.88-.46 1.28-.21 1.07.1 1.93.95 2.57.25.19.5.38.75.58.47.36.65.84.52 1.43-.17.85-.84 1.15-1.99.92-2.01-.41-4.02-.8-6.03-1.19-.59-.11-1.02-.33-1.31-.66-.29-.33-.39-.72-.31-1.18.09-.49.52-.83 1.28-1.02.71-.18 1.25-.36 1.6-.55.36-.19.72-.46 1.09-.83.58-.61 1.13-1.46 1.65-2.56 3.2-6.64 6.44-13.25 9.75-19.85zm3.07-6.09c3.37.7 6.74 1.44 10.1 2.2.08 10.44.04 20.86-.11 31.27 0 .55.03 1.05.1 1.49.07.35.32.69.76 1.01.37.28.6.54.72.76.11.22.13.5.05.81-.21.87-.93 1.16-2.16.87-3.92-.94-7.85-1.84-11.78-2.69-.47-.1-.82-.31-1.06-.61-.23-.31-.3-.66-.22-1.07.07-.34.19-.58.35-.72.16-.14.49-.29.99-.45.35-.1.62-.24.79-.41.17-.18.29-.41.36-.72.06-.29.09-.55.09-.78.01-1.28.02-2.56.04-3.84-2.23-.48-4.47-.96-6.7-1.41.42-.96.85-1.93 1.27-2.89 1.8.37 3.61.75 5.41 1.14 0-7.19-.04-14.39-.14-21.6.37-.79.75-1.58 1.14-2.36zM477.55 401.42c-3.48-.94-6.97-1.85-10.47-2.73l-.61-.15c-.56-.14-.97-.36-1.22-.67-.25-.3-.32-.66-.22-1.08.17-.69.6-1.06 1.28-1.13.57-.05.9-.09 1-.11.1-.02.21-.09.34-.22.26-.22.46-.62.61-1.21 2.11-8.4 4.22-16.79 6.34-25.19.15-.59.16-1.04.03-1.36-.06-.18-.13-.3-.21-.36-.08-.06-.37-.26-.87-.58-.61-.38-.83-.92-.66-1.61.1-.42.35-.7.73-.85.38-.15.87-.14 1.47.01.22.05.43.11.65.16 3.7.93 7.4 1.9 11.09 2.9l.65.18c.6.16 1.02.4 1.29.71.26.31.33.68.22 1.1-.19.68-.64 1.04-1.36 1.08-.59.04-.94.06-1.04.08-.1.02-.22.09-.36.21-.27.21-.48.61-.64 1.2-2.26 8.36-4.53 16.71-6.79 25.07-.25.94-.18 1.55.24 1.84l.66.45c.54.36.72.9.52 1.6-.24.87-.91 1.15-2.02.85-.24-.08-.45-.13-.65-.19zm16.23-21.57c.56 7.27 1.03 14.54 1.42 21.79.03.59.1 1.05.22 1.38.12.33.32.63.6.87.28.27.45.45.52.56.15.3.16.64.05 1.02-.27.88-.98 1.14-2.15.78-3.9-1.18-7.82-2.32-11.74-3.42-.56-.16-.96-.4-1.19-.74-.23-.33-.29-.73-.16-1.2.15-.53.55-.87 1.22-1.01.41-.08.7-.17.86-.26.16-.09.28-.24.36-.45.03-.12.04-.4.04-.85-.11-3.46-.25-6.93-.39-10.4-.05-.96.02-1.75.18-2.37.16-.58.57-1.15 1.22-1.71 2.7-2.28 5.42-4.55 8.17-6.79.78-.62 1.29-1.36 1.53-2.21.13-.46.13-.93 0-1.4-.13-.47-.38-.85-.74-1.13l-.78-.63c-.49-.39-.66-.86-.51-1.41.13-.45.4-.77.83-.95.28-.12.69-.1 1.22.05 2.94.84 5.87 1.69 8.8 2.57.58.17.99.44 1.23.79.24.35.29.76.15 1.23-.21.7-.74 1.08-1.58 1.15-.49.04-.97.09-1.46.13-.6.04-1.42.28-2.46.73-.78.35-1.81 1.01-3.08 1.99-.8.63-1.59 1.26-2.38 1.89zM523.33 378.32l-11.31 33.57c-3.43-1.15-6.86-2.28-10.31-3.37-.2-.06-.4-.13-.6-.19-.56-.18-.95-.42-1.18-.74-.23-.32-.29-.68-.16-1.1.21-.68.66-1.03 1.35-1.05.57-.02.91-.04 1-.05.1-.01.22-.08.36-.2.27-.2.5-.59.68-1.17 2.61-8.25 5.23-16.51 7.84-24.76.18-.58.22-1.03.11-1.35-.05-.18-.11-.3-.19-.37s-.36-.28-.84-.63c-.59-.42-.77-.97-.56-1.64.13-.41.39-.68.78-.8s.88-.09 1.47.1c.21.07.43.13.64.2 3.65 1.13 7.29 2.32 10.92 3.55zm-4.03 18.58c.32-.95.65-1.9.97-2.85 1.08-.14 1.93-.41 2.57-.79.63-.39 1.21-.99 1.73-1.82.34-.58.66-.95.95-1.11.29-.17.63-.18 1.01-.05.51.18.79.51.84.98.04.25-.08.75-.34 1.5-1.09 3.11-2.19 6.22-3.28 9.33-.27.77-.54 1.27-.81 1.5-.27.24-.62.28-1.06.12-.36-.13-.6-.34-.73-.64-.12-.3-.16-.74-.09-1.32.12-1.22.04-2.22-.25-3-.28-.77-.79-1.39-1.51-1.85zm6.21-17.84c3.29 1.12 6.57 2.27 9.84 3.44-1.04 2.88-2.07 5.76-3.11 8.64-.18.51-.41.84-.68 1-.27.16-.62.16-1.03.02-.35-.13-.58-.29-.69-.49-.11-.2-.15-.56-.13-1.07.06-2.11-.33-3.87-1.16-5.28-.84-1.41-2.18-2.54-4.01-3.39.32-.96.65-1.92.97-2.87zm-11.4 33.53c.3-.88.6-1.77.9-2.65 1.06.18 1.97.24 2.73.17.76-.07 1.58-.29 2.45-.66.88-.37 1.63-.81 2.25-1.31.62-.5 1.3-1.22 2.04-2.16.36-.46.66-.75.92-.87.25-.12.55-.12.87 0 .44.16.69.4.77.73.08.33-.01.83-.25 1.5-1.03 2.87-2.07 5.75-3.1 8.62-3.19-1.16-6.38-2.28-9.58-3.37z"/></g></svg>